<?xml version="1.0" encoding="UTF-8" standalone="no"?>
<!-- Generator: Adobe Illustrator 16.0.4, SVG Export Plug-In . SVG Version: 6.00 Build 0)  -->

<svg
   xmlns:dc="http://purl.org/dc/elements/1.1/"
   xmlns:cc="http://creativecommons.org/ns#"
   xmlns:rdf="http://www.w3.org/1999/02/22-rdf-syntax-ns#"
   xmlns:svg="http://www.w3.org/2000/svg"
   xmlns="http://www.w3.org/2000/svg"
   xmlns:sodipodi="http://sodipodi.sourceforge.net/DTD/sodipodi-0.dtd"
   xmlns:inkscape="http://www.inkscape.org/namespaces/inkscape"
   version="1.1"
   id="Capa_1"
   x="0px"
   y="0px"
   width="7.5481348"
   height="7.7105007"
   viewBox="0 0 7.5481348 7.7105007"
   enable-background="new 0 0 16 16"
   xml:space="preserve"
   inkscape:version="0.48.3.1 r9886"
   sodipodi:docname="double-chevron-right.svg"><metadata
     id="metadata2997"><rdf:RDF><cc:Work
         rdf:about=""><dc:format>image/svg+xml</dc:format><dc:type
           rdf:resource="http://purl.org/dc/dcmitype/StillImage" /><dc:title /><cc:license
           rdf:resource="http://creativecommons.org/licenses/by/3.0/" /><dc:creator><cc:Agent><dc:title>Elegant Themes</dc:title></cc:Agent></dc:creator><dc:publisher><cc:Agent><dc:title>Flaticon</dc:title></cc:Agent></dc:publisher><dc:source>http://www.flaticon.com/free-icon/arrow-chevron-down_10166</dc:source></cc:Work><cc:License
         rdf:about="http://creativecommons.org/licenses/by/3.0/"><cc:permits
           rdf:resource="http://creativecommons.org/ns#Reproduction" /><cc:permits
           rdf:resource="http://creativecommons.org/ns#Distribution" /><cc:requires
           rdf:resource="http://creativecommons.org/ns#Notice" /><cc:requires
           rdf:resource="http://creativecommons.org/ns#Attribution" /><cc:permits
           rdf:resource="http://creativecommons.org/ns#DerivativeWorks" /></cc:License></rdf:RDF></metadata><defs
     id="defs2995" /><sodipodi:namedview
     pagecolor="#ffffff"
     bordercolor="#666666"
     borderopacity="1"
     objecttolerance="10"
     gridtolerance="10"
     guidetolerance="10"
     inkscape:pageopacity="0"
     inkscape:pageshadow="2"
     inkscape:window-width="1024"
     inkscape:window-height="576"
     id="namedview2993"
     showgrid="false"
     inkscape:zoom="14.75"
     inkscape:cx="-8.1403865"
     inkscape:cy="4.078318"
     inkscape:window-x="0"
     inkscape:window-y="24"
     inkscape:window-maximized="1"
     inkscape:current-layer="Capa_1"
     fit-margin-top="0"
     fit-margin-left="0"
     fit-margin-right="0"
     fit-margin-bottom="0" /><g
     id="g2987"
     transform="matrix(0,-1,1,0,-4.449,11.837501)"
     style="fill:#000000;fill-opacity:1;stroke:none;stroke-opacity:1"><path
       d="m 10.979,8.182 -2.997,2.65 -2.996,-2.65 c -0.196,-0.196 -0.515,-0.196 -0.711,0 -0.196,0.196 -0.196,0.515 0,0.71 l 3.345,2.959 c 0.1,0.101 0.231,0.148 0.362,0.146 C 8.113,12 8.244,11.953 8.344,11.854 L 11.69,8.895 c 0.195,-0.196 0.195,-0.516 0,-0.711 C 11.493,7.987 11.174,7.986 10.979,8.182 z"
       id="path2989"
       inkscape:connector-curvature="0"
       style="fill:#000000;fill-opacity:1;stroke:none;stroke-opacity:1" /><path
       d="m 7.619,8.266 c 0.1,0.1 0.231,0.148 0.362,0.146 C 8.112,8.414 8.244,8.366 8.343,8.266 L 11.688,5.307 C 11.887,5.111 11.887,4.793 11.69,4.596 11.494,4.4 11.174,4.4 10.979,4.596 L 7.982,7.246 4.986,4.596 C 4.789,4.4 4.47,4.4 4.274,4.596 c -0.196,0.196 -0.196,0.515 0,0.711 l 3.345,2.959 z"
       id="path2991"
       inkscape:connector-curvature="0"
       style="fill:#000000;fill-opacity:1;stroke:none;stroke-opacity:1" /></g></svg>