<?xml version="1.0" encoding="UTF-8" standalone="no"?>
<!-- Created with Inkscape (http://www.inkscape.org/) -->

<svg
   xmlns:dc="http://purl.org/dc/elements/1.1/"
   xmlns:cc="http://creativecommons.org/ns#"
   xmlns:rdf="http://www.w3.org/1999/02/22-rdf-syntax-ns#"
   xmlns:svg="http://www.w3.org/2000/svg"
   xmlns="http://www.w3.org/2000/svg"
   xmlns:sodipodi="http://sodipodi.sourceforge.net/DTD/sodipodi-0.dtd"
   xmlns:inkscape="http://www.inkscape.org/namespaces/inkscape"
   id="svg3251"
   version="1.1"
   inkscape:version="0.48.3.1 r9886"
   width="400"
   height="250"
   sodipodi:docname="emfied.png">
  <metadata
     id="metadata3257">
    <rdf:RDF>
      <cc:Work
         rdf:about="">
        <dc:format>image/svg+xml</dc:format>
        <dc:type
           rdf:resource="http://purl.org/dc/dcmitype/StillImage" />
        <dc:title></dc:title>
      </cc:Work>
    </rdf:RDF>
  </metadata>
  <defs
     id="defs3255" />
  <sodipodi:namedview
     pagecolor="#ffffff"
     bordercolor="#666666"
     borderopacity="1"
     objecttolerance="10"
     gridtolerance="10"
     guidetolerance="10"
     inkscape:pageopacity="0"
     inkscape:pageshadow="2"
     inkscape:window-width="931"
     inkscape:window-height="480"
     id="namedview3253"
     showgrid="false"
     fit-margin-top="0"
     fit-margin-left="0"
     fit-margin-right="0"
     fit-margin-bottom="0"
     inkscape:zoom="0.36875"
     inkscape:cx="192.0339"
     inkscape:cy="193.80846"
     inkscape:window-x="0"
     inkscape:window-y="27"
     inkscape:window-maximized="0"
     inkscape:current-layer="svg3251" />
  <path
     inkscape:connector-curvature="0"
     id="path3283"
     d="m 139.4336,248.99031 c 0.002,-0.55534 9.73411,-23.72779 21.62524,-51.49435 l 21.62026,-50.48465 20.12504,-0.22041 20.125,-0.22039 1.05596,2.64366 c 16.09198,40.28957 39.15924,99.08708 39.15924,99.8153 0,0.74355 -14.46673,0.97053 -61.85785,0.97053 -48.72529,0 -61.85681,-0.21436 -61.85289,-1.00969 z M 52.813234,194.06301 C 29.704054,176.87356 11.302484,151.61187 4.4174144,127.6252 1.3443544,116.91913 -0.66737557,100.71897 0.20451443,93.69951 1.5140544,83.15642 3.3244344,73.52455 4.9869344,68.25525 11.904704,46.32928 30.186624,21.35002 51.099154,5.2504 l 6.82,-5.2504 4.08354,2.83025 4.08352,2.83027 -6.79023,5.53738 c -23.41582,19.09546 -38.79987,41.67624 -44.70227,65.61423 -3.24472,13.1594 -3.25726,31.05238 -0.031,44.35104 5.67282,23.38386 22.28139,47.81467 44.13914,64.92761 l 7.5948,5.94615 -3.75178,2.72951 c -2.0635,1.50124 -4.05883,2.72952 -4.43411,2.72952 -0.37525,0 -2.75914,-1.54483 -5.29749,-3.43295 z m 284.923936,0.70343 -3.75179,-2.72951 7.59477,-5.94615 c 21.91865,-17.16066 38.44376,-41.45539 44.11854,-64.86194 3.16117,-13.03858 3.17949,-32.32874 0.0424,-44.55284 -5.80227,-22.60876 -19.32533,-43.30763 -39.97613,-61.18941 -9.57697,-8.29277 -9.23446,-7.58736 -4.99353,-10.28223 2.05758,-1.30747 4.18573,-2.37722 4.72926,-2.37722 0.54355,0 3.29967,1.90832 6.12474,4.24071 45.50622,37.57096 60.22244,89.48939 38.522,135.90469 -6.59956,14.11566 -20.75631,32.59036 -33.42411,43.61873 -5.69837,4.96086 -13.63016,10.90469 -14.55184,10.90469 -0.37527,0 -2.37064,-1.22828 -4.43407,-2.72952 z M 94.044974,164.61746 c -13.08043,-9.88608 -26.01825,-27.65741 -31.35979,-43.07559 -3.34379,-9.65175 -4.22283,-26.95305 -1.90712,-37.53541 4.11981,-18.82671 16.50635,-37.33428 34.38599,-51.37847 l 4.33601,-3.40587 4.125226,2.90887 4.12522,2.90887 -5.15296,4.28944 c -34.206136,28.47387 -41.337676,65.80092 -18.875646,98.79671 3.37789,4.96197 9.42495,12.00287 13.69496,15.94578 4.205436,3.88327 7.646236,7.33642 7.646206,7.67367 -2e-5,0.33725 -1.80664,1.62965 -4.01474,2.872 l -4.014676,2.25881 -2.98868,-2.25881 z m 206.388346,-2.61876 -3.23266,-2.37933 5.75943,-5.49628 c 16.79969,-16.03195 25.05359,-32.10611 26.25695,-51.1344 1.49421,-23.62511 -8.38987,-43.45666 -31.90515,-64.01497 l -2.54132,-2.22176 3.88891,-2.82922 3.8888,-2.82922 3.87665,2.62772 c 4.94589,3.35246 14.82196,13.83565 20.24082,21.4852 19.99557,28.22669 18.89496,63.71016 -2.84088,91.58651 -6.40389,8.21295 -16.3613,17.58508 -18.68338,17.58508 -0.81147,0 -2.93011,-1.07069 -4.70817,-2.37933 z M 139.81937,138.32795 c -22.49645,-16.89682 -27.90089,-44.39942 -12.85486,-65.41696 4.09297,-5.71742 12.16497,-13.54104 13.97094,-13.54104 1.49634,0 7.65728,4.06003 7.65728,5.04611 0,0.3878 -1.82822,2.39345 -4.0627,4.457 -20.43709,18.87364 -19.40325,44.59688 2.50209,62.25445 l 5.30375,4.27528 -3.81456,2.77518 c -2.098,1.52635 -4.12778,2.77518 -4.51064,2.77518 -0.38285,0 -2.26893,-1.18134 -4.1913,-2.6252 z m 114.36062,-1.66757 c -3.3283,-2.49819 -3.18774,-3.13048 1.69319,-7.61462 9.85419,-9.05309 16.22119,-23.54139 14.64588,-33.32686 -1.68505,-10.4667 -7.08387,-20.05656 -15.52678,-27.57989 -1.81667,-1.61886 -3.3031,-3.27743 -3.3031,-3.68571 0,-1.04248 6.1504,-5.08335 7.73705,-5.08335 0.72133,0 3.59554,2.27181 6.38717,5.04847 11.53958,11.47731 15.94043,21.16676 15.83825,34.87068 -0.0768,10.27615 -1.82595,15.85965 -7.73728,24.69622 -4.79753,7.17184 -12.54902,14.54457 -15.29172,14.54457 -1.07359,0 -3.07285,-0.84128 -4.44266,-1.86951 z m -63.7759,-22.89756 c -11.92698,-4.43376 -16.47093,-13.91218 -10.59603,-22.10268 8.41835,-11.73645 33.43128,-11.49878 41.09009,0.39045 5.22986,8.11871 0.60243,17.43458 -10.68824,21.51752 -5.21886,1.88723 -14.99436,1.98333 -19.80582,0.19471 z"
     style="fill:#2e2e2e" />
</svg>
