<?xml version="1.0" encoding="UTF-8" standalone="no"?>
<!-- Created with Inkscape (http://www.inkscape.org/) -->

<svg
   xmlns:dc="http://purl.org/dc/elements/1.1/"
   xmlns:cc="http://creativecommons.org/ns#"
   xmlns:rdf="http://www.w3.org/1999/02/22-rdf-syntax-ns#"
   xmlns:svg="http://www.w3.org/2000/svg"
   xmlns="http://www.w3.org/2000/svg"
   xmlns:sodipodi="http://sodipodi.sourceforge.net/DTD/sodipodi-0.dtd"
   xmlns:inkscape="http://www.inkscape.org/namespaces/inkscape"
   width="436.77835"
   height="449.37094"
   id="svg2"
   version="1.1"
   inkscape:version="0.48.3.1 r9886"
   sodipodi:docname="heckachecka.svg">
  <defs
     id="defs4" />
  <sodipodi:namedview
     id="base"
     pagecolor="#ffffff"
     bordercolor="#666666"
     borderopacity="1.0"
     inkscape:pageopacity="0.0"
     inkscape:pageshadow="2"
     inkscape:zoom="2.0228278"
     inkscape:cx="223.54567"
     inkscape:cy="186.68924"
     inkscape:document-units="px"
     inkscape:current-layer="layer1"
     showgrid="false"
     fit-margin-top="0"
     fit-margin-left="0"
     fit-margin-right="0"
     fit-margin-bottom="0"
     inkscape:window-width="1920"
     inkscape:window-height="1056"
     inkscape:window-x="0"
     inkscape:window-y="24"
     inkscape:window-maximized="1" />
  <metadata
     id="metadata7">
    <rdf:RDF>
      <cc:Work
         rdf:about="">
        <dc:format>image/svg+xml</dc:format>
        <dc:type
           rdf:resource="http://purl.org/dc/dcmitype/StillImage" />
      </cc:Work>
    </rdf:RDF>
  </metadata>
  <g
     inkscape:label="Layer 1"
     inkscape:groupmode="layer"
     id="layer1"
     transform="translate(-150.90595,-211.42597)">
    <g
       id="g3007"
       transform="translate(76.505775,-69.898475)"
       style="fill:#8fed8f;fill-opacity:1">
      <path
         style="fill:#8fed8f;fill-opacity:1"
         d="M 116.92621,715.54458 C 103.77577,695.47448 74.400175,608.50873 74.400175,589.64727 c 0,-18.67495 21.830754,-39.5177 47.235195,-45.09746 23.44605,-5.14961 33.65566,3.53687 45.97291,39.11439 4.89258,14.13188 11.59115,26.52425 14.8857,27.5386 3.29456,1.01434 26.51863,-29.6232 51.60906,-68.08342 62.24477,-95.4128 152.79595,-216.13069 178.07851,-237.40456 29.04832,-24.44255 98.99699,-33.61603 98.99699,-12.98305 0,3.15868 -30.84634,44.54122 -68.54743,91.96121 -71.65666,90.1289 -159.34015,210.90447 -201.50378,277.55205 -39.23649,62.02069 -47.02954,68.45034 -82.9652,68.45034 -25.57028,0 -33.12826,-2.77693 -41.23592,-15.15079 z"
         id="path3021"
         inkscape:connector-curvature="0" />
      <path
         style="fill:#8fed8f;fill-opacity:1"
         d="M 117.1817,716.34753 C 105.34149,699.54063 74.400175,606.28944 74.400175,587.41224 c 0,-24.16575 57.922665,-55.64596 73.579255,-39.98937 4.08862,4.08862 12.02473,19.86188 17.63579,35.05169 5.61107,15.1898 13.47038,27.61783 17.46515,27.61783 3.99476,0 35.08499,-41.67511 69.0894,-92.61136 76.46774,-114.5434 150.37036,-207.95029 174.33181,-220.34123 24.0039,-12.4129 66.12571,-18.22475 77.39469,-10.67871 10.79256,7.22702 16.1172,-0.86747 -78.05562,118.65978 -61.93324,78.6077 -113.74157,150.30688 -202.27946,279.94094 -28.72324,42.05555 -29.19207,42.38867 -62.3807,44.32388 -28.70027,1.67349 -34.93654,-0.17452 -43.99879,-13.03816 z"
         id="path3019"
         inkscape:connector-curvature="0" />
      <path
         style="fill:#8fed8f;fill-opacity:1"
         d="M 117.32609,716.02744 C 106.15014,698.82129 74.400175,603.72239 74.400175,587.45386 c 0,-20.15385 43.938625,-49.29744 64.489785,-42.77477 6.51456,2.06765 19.0371,20.56508 27.82787,41.1054 l 15.98322,37.34606 60.90251,-91.26712 c 77.58503,-116.26717 160.99436,-223.4242 182.45078,-234.39687 9.17062,-4.68979 29.13514,-10.59734 44.3656,-13.12789 40.32452,-6.69994 42.75387,7.65449 8.54347,50.48119 -66.63241,83.41458 -188.6565,248.86807 -232.51974,315.27547 -26.37385,39.92908 -52.64418,74.39872 -58.37852,76.59919 -5.73433,2.20046 -21.85284,4.00085 -35.81891,4.00085 -19.16438,0 -27.72976,-3.59782 -34.92015,-14.66793 z"
         id="path3017"
         inkscape:connector-curvature="0" />
      <path
         style="fill:#8fed8f;fill-opacity:1"
         d="m 129.09221,725.70623 c -11.25493,-7.44628 -25.9379,-39.55966 -41.462697,-90.68382 -16.536,-54.45411 -13.300423,-66.11679 23.140147,-83.40897 21.7484,-10.3203 24.66947,-10.39804 34.15833,-0.90918 5.7069,5.7069 14.90807,22.43656 20.44706,37.17702 5.53897,14.74047 13.00445,27.23495 16.58995,27.76552 3.58549,0.53056 20.86446,-21.03722 38.39771,-47.92843 92.29019,-141.54789 178.14325,-252.60935 207.87518,-268.91205 23.17815,-12.70911 76.42157,-15.60112 76.42157,-4.15098 0,3.99157 -25.87134,39.928 -57.49187,79.85873 -88.76686,112.09571 -113.78623,146.05118 -184.17451,249.95577 -35.93493,53.0458 -70.33369,98.44091 -76.4417,100.87803 -15.09111,6.0214 -48.58386,6.23029 -57.45917,0.35835 z"
         id="path3015"
         inkscape:connector-curvature="0" />
      <path
         style="fill:#8fed8f;fill-opacity:1"
         d="m 130.8313,723.31228 c -13.75156,-7.99359 -26.91525,-36.68695 -43.892518,-95.67399 -13.552608,-47.08816 -11.631425,-56.68307 14.003968,-69.93965 33.76682,-17.4615 44.38135,-12.93704 61.74154,26.31743 8.72122,19.72022 18.09394,35.79878 20.82827,35.73014 2.73434,-0.0686 28.44021,-35.81606 57.12416,-79.43872 64.31827,-97.81545 138.07313,-196.69453 168.78411,-226.27955 19.25744,-18.5514 29.12299,-22.7617 59.17451,-25.25381 24.23708,-2.00993 36.06412,-0.57366 36.06412,4.37961 0,4.05368 -28.64251,43.28696 -63.65003,87.18506 -64.63273,81.04702 -148.07582,195.3773 -209.17499,286.60294 -18.54002,27.68165 -39.35254,53.35053 -46.25002,57.04195 -15.99806,8.5619 -39.36173,8.27541 -54.75312,-0.67141 z"
         id="path3013"
         inkscape:connector-curvature="0" />
      <path
         style="fill:#8fed8f;fill-opacity:1"
         d="m 141.69417,725.99005 c -19.88795,-3.63796 -26.13061,-13.06331 -44.580966,-67.3096 -20.942095,-61.57231 -20.756315,-79.90793 0.982906,-97.00801 30.41205,-23.92212 46.03799,-18.35106 64.29059,22.92131 8.86172,20.03794 18.82129,35.43927 22.13237,34.22517 3.31108,-1.2141 35.44704,-46.21124 71.41324,-99.99365 75.1503,-112.37674 142.982,-199.83555 167.39627,-215.83239 19.50815,-12.78223 81.33088,-20.80694 81.33088,-10.55692 0,3.68328 -18.56304,29.7254 -41.2512,57.87137 -64.00677,79.40407 -157.61232,206.52234 -213.71535,290.22985 -28.04438,41.84309 -53.28906,77.37393 -56.0993,78.95741 -9.87303,5.56315 -37.85267,9.06493 -51.89944,6.49546 z"
         id="path3011"
         inkscape:connector-curvature="0" />
      <path
         style="fill:#8fed8f;fill-opacity:1"
         d="m 109.66331,688.86033 c -8.89249,-19.42377 -19.668009,-52.00152 -23.945586,-72.395 -7.714578,-36.77948 -7.62741,-37.20808 10.789249,-53.04942 11.834367,-10.17949 24.769417,-15.24968 35.672937,-13.9828 14.11812,1.64037 19.24904,7.96606 29.37299,36.21273 6.7467,18.82384 15.886,34.22517 20.30957,34.22517 4.42357,0 39.07964,-46.20398 77.01349,-102.67551 90.07491,-134.09309 150.82568,-209.36355 178.21302,-220.80671 22.88949,-9.56384 67.59492,-12.27893 67.53415,-4.10155 -0.02,2.68912 -16.52496,25.42441 -36.67772,50.52287 C 399.1067,428.54252 317.80005,538.31926 254.28929,631.2794 l -63.46755,92.89689 -32.49512,0 -32.49512,0 -16.16819,-35.31596 z"
         id="path3009"
         inkscape:connector-curvature="0" />
    </g>
  </g>
</svg>
