<?xml version="1.0" encoding="UTF-8" standalone="no"?>
<svg
   xmlns:dc="http://purl.org/dc/elements/1.1/"
   xmlns:cc="http://creativecommons.org/ns#"
   xmlns:rdf="http://www.w3.org/1999/02/22-rdf-syntax-ns#"
   xmlns:svg="http://www.w3.org/2000/svg"
   xmlns="http://www.w3.org/2000/svg"
   xmlns:sodipodi="http://sodipodi.sourceforge.net/DTD/sodipodi-0.dtd"
   xmlns:inkscape="http://www.inkscape.org/namespaces/inkscape"
   id="svg2"
   viewBox="0 0 112.28614 49.670608"
   version="1.1"
   inkscape:version="0.48.3.1 r9886"
   width="100%"
   height="100%"
   sodipodi:docname="wifi.svg">
  <defs
     id="defs3155" />
  <sodipodi:namedview
     pagecolor="#ffffff"
     bordercolor="#666666"
     borderopacity="1"
     objecttolerance="10"
     gridtolerance="10"
     guidetolerance="10"
     inkscape:pageopacity="0"
     inkscape:pageshadow="2"
     inkscape:window-width="1020"
     inkscape:window-height="753"
     id="namedview3153"
     showgrid="false"
     fit-margin-top="0"
     fit-margin-left="0"
     fit-margin-right="0"
     fit-margin-bottom="0"
     inkscape:zoom="2.4583333"
     inkscape:cx="42.0009"
     inkscape:cy="21.633432"
     inkscape:window-x="337"
     inkscape:window-y="69"
     inkscape:window-maximized="0"
     inkscape:current-layer="svg2" />
  <g
     id="layer1"
     transform="matrix(1.3528776,0,0,0.87152671,-8.116048,-850.89143)">
    <g
       id="g2988"
       transform="matrix(1.3833,0,0,1.3902,-17.517,-392.14)"
       style="fill:#404040">
      <path
         id="path2921"
         d="m 77,997.98 c -7.6659,-8.377 -18.484,-13.616 -30.48,-13.616 -11.496,0 -21.925,4.7811 -29.52,12.554 l 1.7637,1.8348 c 7.147,-7.3038 16.946,-11.813 27.757,-11.813 11.319,0 21.498,4.956 28.716,12.876 l 1.763,-1.83 z m -6.9933,7.2748 c -5.8715,-6.5148 -14.224,-10.59 -23.486,-10.59 -8.7616,0 -16.693,3.6518 -22.496,9.5602 l 1.7328,1.8025 c 5.3553,-5.4434 12.684,-8.7876 20.763,-8.7876 8.5761,0 16.3,3.8036 21.723,9.8498 l 1.7638,-1.8347 z m -6.9933,7.2747 c -4.075,-4.6546 -9.9642,-7.5644 -16.493,-7.5644 -6.0269,0 -11.492,2.4902 -15.503,6.5343 l 1.7328,1.8026 c 3.5626,-3.5785 8.4266,-5.7618 13.77,-5.7618 5.8455,0 11.104,2.6341 14.729,6.824 l 1.7638,-1.8026 v -0.032 z"
         inkscape:connector-curvature="0" />
      <path
         id="path2927"
         transform="matrix(0,0.9,-0.9,0,79.4,980.36)"
         d="m 50,36 c 0,2.7614 -2.2386,5 -5,5 -2.7614,0 -5,-2.2386 -5,-5 0,-2.7614 2.2386,-5 5,-5 2.7614,0 5,2.2386 5,5 z"
         inkscape:connector-curvature="0" />
    </g>
  </g>
  <metadata
     id="metadata3151">
    <rdf:RDF>
      <cc:Work>
        <dc:format>image/svg+xml</dc:format>
        <dc:type
           rdf:resource="http://purl.org/dc/dcmitype/StillImage" />
        <cc:license
           rdf:resource="http://creativecommons.org/licenses/publicdomain/" />
        <dc:publisher>
          <cc:Agent
             rdf:about="http://openclipart.org/">
            <dc:title>Openclipart</dc:title>
          </cc:Agent>
        </dc:publisher>
        <dc:title>wi-fi</dc:title>
        <dc:date>2013-11-20T08:52:17</dc:date>
        <dc:description>wi-fi symbol</dc:description>
        <dc:source>http://openclipart.org/detail/188933/wi-fi-by-crisg-188933</dc:source>
        <dc:creator>
          <cc:Agent>
            <dc:title>crisg</dc:title>
          </cc:Agent>
        </dc:creator>
        <dc:subject>
          <rdf:Bag>
            <rdf:li>wi-fi</rdf:li>
            <rdf:li>waves</rdf:li>
            <rdf:li>icon</rdf:li>
            <rdf:li>clip art</rdf:li>
            <rdf:li>wi-fi symbol</rdf:li>
            <rdf:li>symbol</rdf:li>
            <rdf:li>symbols</rdf:li>
            <rdf:li>pictogram</rdf:li>
          </rdf:Bag>
        </dc:subject>
      </cc:Work>
      <cc:License
         rdf:about="http://creativecommons.org/licenses/publicdomain/">
        <cc:permits
           rdf:resource="http://creativecommons.org/ns#Reproduction" />
        <cc:permits
           rdf:resource="http://creativecommons.org/ns#Distribution" />
        <cc:permits
           rdf:resource="http://creativecommons.org/ns#DerivativeWorks" />
      </cc:License>
    </rdf:RDF>
  </metadata>
</svg>
